<svg width="19" height="19" viewBox="0 0 19 19" fill="none" xmlns="http://www.w3.org/2000/svg">
<g clip-path="url(#clip0)">
<path d="M0.463825 15.8337H8.87453C8.99754 15.8337 9.11552 15.7848 9.2025 15.6978C9.28948 15.6108 9.33835 15.4928 9.33835 15.3698V14.3802C9.338 14.0925 9.24864 13.812 9.08256 13.5771C8.91647 13.3423 8.68179 13.1645 8.4107 13.0683V12.4647C8.41029 12.112 8.27014 11.7738 8.02092 11.5242C7.77171 11.2746 7.43375 11.134 7.08107 11.1331H2.25945C1.90639 11.1334 1.56788 11.2738 1.3182 11.5234C1.06852 11.7731 0.92806 12.1116 0.927651 12.4647V13.0683C0.656565 13.1645 0.421881 13.3423 0.255794 13.5771C0.0897076 13.812 0.000356682 14.0925 0 14.3802L0 15.3698C0 15.4928 0.0488672 15.6108 0.135851 15.6978C0.222835 15.7848 0.340811 15.8337 0.463825 15.8337ZM2.25945 12.0608H7.08107C7.1878 12.0615 7.28995 12.1043 7.36525 12.1799C7.44054 12.2556 7.48289 12.3579 7.48305 12.4647V12.9886H1.8553V12.4647C1.85547 12.3576 1.89811 12.2549 1.97387 12.1792C2.04964 12.1035 2.15234 12.0609 2.25945 12.0608ZM0.927651 14.3802C0.927651 14.2572 0.976518 14.1392 1.0635 14.0522C1.15049 13.9652 1.26846 13.9163 1.39148 13.9163H7.94688C8.06989 13.9163 8.18787 13.9652 8.27485 14.0522C8.36183 14.1392 8.4107 14.2572 8.4107 14.3802V14.9059H0.927651V14.3802Z" fill="white"/>
<path d="M5.343 9.6573C5.52708 9.90147 5.78644 10.0782 6.08101 10.1602C6.37558 10.2422 6.68895 10.2249 6.97269 10.1109C7.25642 9.99691 7.49472 9.79265 7.65075 9.52967C7.80678 9.26668 7.87185 8.95962 7.83591 8.65595C8.23029 8.58868 8.61612 8.47845 8.98651 8.32721L13.3295 14.096C13.4394 14.242 13.577 14.365 13.7344 14.4579C13.8918 14.5508 14.066 14.6117 14.247 14.6373C14.428 14.6628 14.6122 14.6525 14.7892 14.6068C14.9662 14.5612 15.1324 14.4811 15.2785 14.3712C15.4245 14.2613 15.5475 14.1237 15.6403 13.9662C15.7332 13.8088 15.7942 13.6346 15.8197 13.4536C15.8453 13.2726 15.8349 13.0883 15.7893 12.9113C15.7436 12.7343 15.6636 12.568 15.5537 12.422L11.2101 6.65324C11.4574 6.33901 11.6697 5.99867 11.8431 5.63828C12.125 5.75699 12.4381 5.7795 12.7341 5.70231C13.0301 5.62512 13.2924 5.45254 13.4805 5.21127C13.6685 4.97 13.7718 4.67348 13.7745 4.36758C13.7771 4.06168 13.6788 3.76344 13.4949 3.51899L11.2636 0.554215C11.0795 0.310001 10.8201 0.133234 10.5255 0.0512452C10.2309 -0.030744 9.91748 -0.0133897 9.63372 0.100625C9.34997 0.21464 9.11167 0.418964 8.95567 0.68201C8.79966 0.945056 8.73465 1.25217 8.77068 1.55588C7.91005 1.70169 7.09692 2.05171 6.39943 2.5766C5.70195 3.10149 5.14045 3.78595 4.76198 4.57261C4.47997 4.45356 4.16658 4.43084 3.87035 4.50796C3.57411 4.58508 3.31158 4.75774 3.1234 4.9992C2.93522 5.24066 2.8319 5.53743 2.82945 5.84356C2.827 6.14968 2.92555 6.44808 3.10984 6.69252L5.343 9.6573ZM10.5654 7.33947L11.1838 8.16207L10.4417 8.72027L9.82325 7.89766C10.0859 7.73288 10.3342 7.54614 10.5654 7.33947ZM14.7188 13.6296C14.6701 13.6662 14.6146 13.6928 14.5556 13.7079C14.4966 13.723 14.4352 13.7263 14.3749 13.7177C14.3146 13.7091 14.2566 13.6887 14.2042 13.6577C14.1518 13.6266 14.106 13.5856 14.0694 13.5368L11.0017 9.46309L11.7438 8.90489L14.8115 12.9799C14.8481 13.0286 14.8748 13.0841 14.8899 13.1431C14.9051 13.2022 14.9084 13.2636 14.8998 13.324C14.8912 13.3843 14.8708 13.4424 14.8397 13.4948C14.8086 13.5473 14.7676 13.5931 14.7188 13.6296ZM9.87304 1.02056C9.97145 0.946748 10.0951 0.915052 10.2169 0.932451C10.3387 0.94985 10.4486 1.01492 10.5224 1.11334L12.7543 4.07812C12.8281 4.17654 12.8598 4.30025 12.8424 4.42205C12.825 4.54384 12.76 4.65373 12.6616 4.72754C12.6128 4.76409 12.5574 4.79069 12.4984 4.80581C12.4394 4.82092 12.378 4.82427 12.3177 4.81566C12.1959 4.79826 12.086 4.73319 12.0122 4.63477L9.7812 1.66999C9.70729 1.57168 9.67545 1.44804 9.69267 1.32626C9.70989 1.20448 9.77477 1.09452 9.87304 1.02056ZM9.19276 2.43291L11.1164 4.98855C10.8063 5.74368 10.2985 6.40131 9.64646 6.89233C8.99438 7.38335 8.22208 7.6896 7.41074 7.77891L5.48864 5.22296C5.79833 4.46759 6.30599 3.80974 6.95816 3.31872C7.61032 2.82769 8.38283 2.52168 9.1943 2.43291H9.19276ZM3.94225 5.4849C3.99098 5.44835 4.04643 5.42175 4.10543 5.40663C4.16444 5.39152 4.22584 5.38817 4.28614 5.39678C4.34644 5.4054 4.40445 5.42581 4.45686 5.45684C4.50927 5.48788 4.55506 5.52894 4.59161 5.57767L6.82354 8.54245C6.86008 8.59118 6.88667 8.64664 6.90179 8.70565C6.91691 8.76466 6.92025 8.82607 6.91164 8.88638C6.90303 8.94668 6.88262 9.0047 6.85159 9.05712C6.82055 9.10953 6.7795 9.15533 6.73077 9.19188C6.68204 9.22843 6.62659 9.25502 6.56759 9.27014C6.50858 9.28526 6.44718 9.2886 6.38688 9.27999C6.32658 9.27137 6.26857 9.25097 6.21616 9.21993C6.16375 9.18889 6.11796 9.14783 6.08141 9.0991L3.84948 6.13432C3.81302 6.08549 3.78653 6.02996 3.77154 5.97089C3.75654 5.91182 3.75333 5.85038 3.76209 5.79007C3.77085 5.72975 3.7914 5.67176 3.82258 5.6194C3.85376 5.56704 3.89495 5.52133 3.9438 5.4849H3.94225Z" fill="white"/>
</g>
<defs>
<clipPath id="clip0">
<rect width="19" height="19" fill="white"/>
</clipPath>
</defs>
</svg>
