<svg width="15" height="15" viewBox="0 0 15 15" fill="none" xmlns="http://www.w3.org/2000/svg">
<path d="M8.32844 7.50081L14.8281 1.00105C15.057 0.772216 15.057 0.4012 14.8281 0.172392C14.5993 -0.0564173 14.2283 -0.0564466 13.9995 0.172392L7.49975 6.67214L1.00004 0.172392C0.771207 -0.0564466 0.400192 -0.0564466 0.171384 0.172392C-0.0574242 0.40123 -0.0574535 0.772246 0.171384 1.00105L6.67109 7.50078L0.171384 14.0005C-0.0574535 14.2294 -0.0574535 14.6004 0.171384 14.8292C0.285788 14.9436 0.435758 15.0008 0.585729 15.0008C0.735699 15.0008 0.88564 14.9436 1.00007 14.8292L7.49975 8.32947L13.9995 14.8292C14.1139 14.9436 14.2638 15.0008 14.4138 15.0008C14.5638 15.0008 14.7137 14.9436 14.8281 14.8292C15.057 14.6004 15.057 14.2293 14.8281 14.0005L8.32844 7.50081Z" fill="#333333"/>
</svg>
