<svg width="19" height="19" viewBox="0 0 19 19" fill="none" xmlns="http://www.w3.org/2000/svg">
<path d="M16.3561 1.30467C15.3984 0.34872 13.8477 0.34872 12.89 1.30467L12.0224 2.17705L2.78661 11.4079L2.76698 11.4277C2.76223 11.4325 2.76223 11.4375 2.75717 11.4375C2.74735 11.4522 2.73263 11.4668 2.72297 11.4815C2.72297 11.4864 2.71791 11.4864 2.71791 11.4913C2.7081 11.5061 2.70334 11.5159 2.69338 11.5306C2.68862 11.5355 2.68862 11.5403 2.68372 11.5453C2.67881 11.56 2.6739 11.5699 2.66884 11.5846C2.66884 11.5893 2.66409 11.5893 2.66409 11.5944L0.614945 17.7564C0.554834 17.9318 0.60053 18.1261 0.73256 18.2563C0.825333 18.3478 0.950462 18.3991 1.08065 18.3986C1.13386 18.3977 1.18661 18.3894 1.23752 18.3741L7.39477 16.32C7.39952 16.32 7.39952 16.32 7.40458 16.3153C7.42007 16.3107 7.43494 16.3041 7.44859 16.2955C7.45242 16.295 7.4558 16.2933 7.45856 16.2907C7.47313 16.2809 7.49275 16.2709 7.50747 16.2611C7.52204 16.2515 7.53692 16.2367 7.55164 16.2269C7.55654 16.2219 7.5613 16.2219 7.5613 16.2171C7.56636 16.2122 7.57617 16.2075 7.58108 16.1975L17.6845 6.09408C18.6404 5.13644 18.6404 3.58567 17.6845 2.62819L16.3561 1.30467ZM7.2379 15.1679L3.82598 11.7562L12.3656 3.21657L15.7775 6.62833L7.2379 15.1679ZM3.3454 12.6631L6.32611 15.6436L1.85029 17.1338L3.3454 12.6631ZM16.9934 5.40771L16.4737 5.9323L13.0616 2.52023L13.5864 1.99579C14.1603 1.42229 15.0907 1.42229 15.6648 1.99579L16.9981 3.32912C17.5678 3.9057 17.5656 4.83389 16.9934 5.40771Z" fill="#4643F2"/>
</svg>
