<svg width="10" height="10" viewBox="0 0 10 10" fill="none" xmlns="http://www.w3.org/2000/svg">
<g clip-path="url(#clip0)">
<path d="M4.9834 9.15283H1.24584C1.0166 9.15283 0.830566 8.96678 0.830566 8.73756V1.26246C0.830566 1.03322 1.01662 0.847187 1.24584 0.847187H4.9834C5.21305 0.847187 5.39867 0.661562 5.39867 0.431914C5.39867 0.202266 5.21305 0.0166016 4.9834 0.0166016H1.24584C0.558965 0.0166016 0 0.575586 0 1.26246V8.73754C0 9.42441 0.558965 9.98338 1.24584 9.98338H4.9834C5.21305 9.98338 5.39867 9.79775 5.39867 9.5681C5.39867 9.33846 5.21305 9.15283 4.9834 9.15283Z" fill="#3B3B3B"/>
<path d="M9.87625 4.70433L7.35133 2.21264C7.18853 2.0515 6.92525 2.05359 6.76412 2.2168C6.60299 2.38 6.60465 2.64287 6.76828 2.804L8.57267 4.58473H3.73754C3.50789 4.58473 3.32227 4.77035 3.32227 5C3.32227 5.22965 3.50789 5.41529 3.73754 5.41529H8.57267L6.76828 7.19601C6.60467 7.35715 6.60342 7.62002 6.76412 7.78322C6.84551 7.86545 6.95266 7.90697 7.0598 7.90697C7.16529 7.90697 7.27076 7.86711 7.35133 7.78736L9.87625 5.29566C9.95516 5.2176 10 5.11127 10 4.99998C10 4.88873 9.95557 4.78283 9.87625 4.70433Z" fill="#3B3B3B"/>
</g>
<defs>
<clipPath id="clip0">
<rect width="10" height="10" fill="white"/>
</clipPath>
</defs>
</svg>
