<svg width="20" height="20" viewBox="0 0 20 20" fill="none" xmlns="http://www.w3.org/2000/svg">
<g clip-path="url(#clip0)">
<path d="M0.585935 19.9999H11.2114C11.535 19.9999 11.7973 19.7376 11.7973 19.414V18.164C11.7973 17.4001 11.3073 16.7487 10.6254 16.5069V15.7444C10.6254 14.8168 9.87072 14.0623 8.94314 14.0623H2.85415C1.92657 14.0623 1.17187 14.8168 1.17187 15.7444V16.5069C0.489958 16.7487 0 17.4001 0 18.164V19.414C0 19.7376 0.262298 19.9999 0.585935 19.9999ZM2.85415 15.2341H8.94314C9.22451 15.2341 9.45354 15.463 9.45354 15.7444V16.4062H2.34389V15.7444C2.34389 15.463 2.57277 15.2341 2.85415 15.2341ZM1.17187 18.164C1.17187 17.8408 1.43478 17.578 1.75781 17.578H10.0393C10.3625 17.578 10.6254 17.8408 10.6254 18.164V18.828H1.17187V18.164Z" fill="#4641FD"/>
<path d="M6.74953 12.1989C7.33073 12.9708 8.43455 13.1307 9.21122 12.546C9.72849 12.1566 9.96912 11.5347 9.89862 10.9338C10.4025 10.848 10.8894 10.7078 11.3523 10.5187L16.8384 17.8055C17.4198 18.5779 18.5238 18.7371 19.3001 18.1527C20.0744 17.5697 20.2302 16.4654 19.6471 15.691L14.1611 8.40419C14.4706 8.01158 14.7399 7.58266 14.9616 7.12231C15.5263 7.35912 16.1896 7.29213 16.7011 6.907C17.4755 6.32397 17.6313 5.21969 17.0483 4.44531L14.2287 0.700365C13.6457 -0.0740154 12.5414 -0.229654 11.7671 0.353382C11.2498 0.742784 11.0092 1.36458 11.0796 1.96547C8.87171 2.34159 6.98924 3.75867 6.01695 5.77633C5.4533 5.53998 4.7929 5.60406 4.27715 5.99224C3.50094 6.57665 3.34561 7.67772 3.93002 8.45393L6.74953 12.1989ZM13.3468 9.27104L14.1293 10.3103L13.193 11.0151L12.4105 9.97599C12.7421 9.76802 13.0552 9.53212 13.3468 9.27104ZM18.5952 17.2164C18.337 17.4108 17.969 17.3589 17.7746 17.1007L13.8978 11.9514L14.8341 11.2466L18.7108 16.3958C18.9052 16.654 18.8532 17.022 18.5952 17.2164ZM12.472 1.28966C12.7309 1.09465 13.0988 1.14806 13.2926 1.40532L16.112 5.15027C16.3064 5.40829 16.2545 5.77649 15.9963 5.97073C15.7377 6.16558 15.3707 6.11386 15.1759 5.85507L12.3563 2.11012C12.1619 1.85194 12.2138 1.4839 12.472 1.28966ZM11.6146 3.07325C11.8684 3.41047 13.787 5.95898 14.045 6.30154C13.2453 8.2455 11.4536 9.59483 9.3638 9.826L6.93339 6.59756C7.73402 4.65131 9.5228 3.30472 11.6146 3.07325ZM4.98211 6.92852C5.24013 6.73412 5.60741 6.78493 5.80257 7.04418L8.62208 10.7891C8.62208 10.7891 8.62208 10.7891 8.62208 10.7893C8.81632 11.0473 8.76444 11.4153 8.50642 11.6097C8.24824 11.804 7.8802 11.7521 7.6858 11.4941L4.86629 7.74913C4.67159 7.49035 4.72332 7.12337 4.98211 6.92852Z" fill="#4641FD"/>
</g>
<defs>
<clipPath id="clip0">
<rect width="20" height="20" fill="white"/>
</clipPath>
</defs>
</svg>
