<svg width="511" height="510" viewBox="0 0 511 510" fill="none" xmlns="http://www.w3.org/2000/svg">
<path d="M509.76 195C506.36 184.7 497.26 177.3 486.36 176.3L338.86 163L280.56 26.5C276.26 16.5 266.46 10 255.56 10C244.66 10 234.86 16.5 230.56 26.5L172.26 163L24.76 176.3C13.96 177.3 4.76001 184.6 1.36001 195C-2.03999 205.3 1.06001 216.7 9.26001 223.9L120.76 321.7L87.96 466.4C85.56 477 89.66 488.1 98.56 494.4C103.26 497.9 108.86 499.6 114.46 499.6C119.26 499.6 124.06 498.3 128.36 495.7L255.56 419.6L382.76 495.7C392.06 501.3 403.86 500.8 412.66 494.4C421.46 488 425.66 477 423.26 466.4L390.36 321.6L501.86 223.8C509.96 216.7 513.06 205.4 509.76 195Z" fill="#ffffff"/>
<path d="M114.373 499.703C108.774 499.703 103.215 497.956 98.4698 494.525C89.6314 488.12 85.5026 477.11 87.9081 466.486L120.782 321.675L9.29434 223.903C1.09923 216.749 -2.03144 205.419 1.33315 195.053C4.69775 184.706 13.8519 177.38 24.6904 176.378L172.202 162.986L230.523 26.5033C234.824 16.4758 244.617 10 255.499 10C266.38 10 276.173 16.4758 280.474 26.4799L338.795 162.986L486.283 176.378C497.145 177.356 506.299 184.706 509.664 195.053C513.029 205.4 509.917 216.749 501.722 223.903L390.234 321.656L423.108 466.462C425.518 477.11 421.385 488.12 412.551 494.506C403.736 500.892 391.981 501.383 382.698 495.804L255.499 419.791L128.299 495.847C123.999 498.401 119.207 499.703 114.373 499.703V499.703ZM255.499 387.045C260.333 387.045 265.121 388.344 269.425 390.897L389.47 462.696L358.444 326.019C356.23 316.291 359.532 306.135 367.049 299.554L472.318 207.232L333.044 194.585C323.017 193.669 314.393 187.365 310.474 178.125L255.499 49.3264L200.456 178.144C196.581 187.322 187.957 193.626 177.953 194.542L38.6595 207.189L143.925 299.511C151.465 306.112 154.763 316.248 152.529 325.999L121.527 462.673L241.572 390.897C245.873 388.344 250.664 387.045 255.499 387.045V387.045ZM171.076 165.625C171.076 165.625 171.076 165.649 171.052 165.668L171.076 165.625ZM339.879 165.563L339.902 165.606C339.902 165.582 339.902 165.582 339.879 165.563Z" fill="#000000"/>
</svg>
