<svg width="511" height="510" viewBox="0 0 511 510" fill="none" xmlns="http://www.w3.org/2000/svg">
<path d="M509.7 195C506.3 184.7 497.2 177.3 486.3 176.3L338.8 163L280.5 26.5C276.2 16.5 266.4 10 255.5 10C244.6 10 234.8 16.5 230.5 26.5L172.2 163L24.7 176.3C13.9 177.3 4.7 184.6 1.3 195C-2.1 205.3 1 216.7 9.2 223.9L120.7 321.7L87.9 466.4C85.5 477 89.6 488.1 98.5 494.4C103.2 497.9 108.8 499.6 114.4 499.6C119.2 499.6 124 498.3 128.3 495.7L255.5 419.6L382.7 495.7C392 501.3 403.8 500.8 412.6 494.4C421.4 488 425.6 477 423.2 466.4L390.3 321.6L501.8 223.8C509.9 216.7 513 205.4 509.7 195Z" fill="#ffffff"/>
<path d="M114.373 500.667C108.774 500.667 103.215 498.921 98.47 495.49C89.6316 489.084 85.5028 478.074 87.9084 467.45L120.782 322.64L9.29455 224.868C1.09944 217.714 -2.03123 206.384 1.33336 196.017C4.69796 185.67 13.8522 178.344 24.6906 177.342L172.203 163.95L230.524 27.4677C234.824 17.4402 244.617 10.9644 255.499 10.9644C266.38 10.9644 276.174 17.4402 280.474 27.4443L338.795 163.95L486.284 177.342C497.145 178.321 506.3 185.67 509.664 196.017C513.029 206.364 509.918 217.714 501.722 224.868L390.235 322.62L423.109 467.427C425.518 478.074 421.385 489.084 412.551 495.47C403.736 501.856 391.981 502.348 382.698 496.768L255.499 420.755L128.299 496.811C123.999 499.365 119.207 500.667 114.373 500.667V500.667ZM255.499 388.01C260.333 388.01 265.121 389.308 269.425 391.862L389.471 463.661L358.444 326.983C356.23 317.256 359.532 307.1 367.049 300.519L472.318 208.197L333.044 195.549C323.017 194.633 314.393 188.329 310.475 179.089L255.499 50.2908L200.457 179.108C196.581 188.286 187.957 194.59 177.953 195.506L38.6597 208.154L143.925 300.476C151.465 307.076 154.764 317.213 152.53 326.964L121.527 463.637L241.573 391.862C245.873 389.308 250.664 388.01 255.499 388.01V388.01ZM171.076 166.59C171.076 166.59 171.076 166.613 171.052 166.633L171.076 166.59ZM339.879 166.527L339.902 166.57C339.902 166.547 339.902 166.547 339.879 166.527Z" fill="#000000"/>
</svg>
